<?xml version="1.0" encoding="utf-8"?>
<!-- Generator: Adobe Illustrator 15.0.0, SVG Export Plug-In . SVG Version: 6.00 Build 0)  -->
<!DOCTYPE svg PUBLIC "-//W3C//DTD SVG 1.1//EN" "http://www.w3.org/Graphics/SVG/1.1/DTD/svg11.dtd">
<svg version="1.1" id="Layer_1" xmlns="http://www.w3.org/2000/svg" xmlns:xlink="http://www.w3.org/1999/xlink" x="0px" y="0px"
	 width="50px" height="50px" viewBox="0 0 50 50" enable-background="new 0 0 50 50" xml:space="preserve">
<g>
	<path d="M0,6.232v37.535h50V6.232H0z M45.828,39.596H4.171V10.403h41.657V39.596z"/>
	<path d="M8.297,31.942c0.893,0.727,2.208,0.59,2.934-0.304v-0.002l2.126-2.619l3.387,4.584c0.449,0.609,1.198,0.927,1.951,0.827
		c0.751-0.097,1.391-0.6,1.667-1.306l3.219-8.21l4.666,10.99c0.327,0.775,1.083,1.271,1.92,1.271c0.038,0,0.077-0.001,0.116-0.003
		c0.88-0.051,1.631-0.645,1.882-1.488l4.441-14.945l1.959,4.023c0.502,1.036,1.751,1.467,2.787,0.963
		c1.035-0.503,1.469-1.754,0.963-2.787l-4.303-8.845c-0.378-0.777-1.188-1.236-2.047-1.167c-0.86,0.071-1.583,0.657-1.829,1.484
		l-4.319,14.524l-4.394-10.354c-0.332-0.783-1.099-1.284-1.95-1.272c-0.849,0.012-1.602,0.533-1.912,1.326l-3.706,9.456
		l-2.744-3.716c-0.386-0.52-0.983-0.829-1.629-0.845c-0.649-0.016-1.26,0.267-1.667,0.771l-3.822,4.708
		C7.266,29.901,7.403,31.216,8.297,31.942z"/>
</g>
</svg>
