<?xml version="1.0" encoding="utf-8"?>
<!-- Generator: Adobe Illustrator 15.0.0, SVG Export Plug-In . SVG Version: 6.00 Build 0)  -->
<!DOCTYPE svg PUBLIC "-//W3C//DTD SVG 1.1//EN" "http://www.w3.org/Graphics/SVG/1.1/DTD/svg11.dtd">
<svg version="1.1" id="Layer_1" xmlns="http://www.w3.org/2000/svg" xmlns:xlink="http://www.w3.org/1999/xlink" x="0px" y="0px"
	 width="50px" height="50px" viewBox="0 0 50 50" enable-background="new 0 0 50 50" xml:space="preserve">
<g>
	<path d="M37.431,32.019c0.298-0.475,0.163-1.103-0.301-1.415l-9.89-6.681V12.426c0-0.275-0.111-0.544-0.305-0.738
		s-0.462-0.305-0.736-0.305h-2.735c-0.275,0-0.542,0.111-0.737,0.305c-0.192,0.194-0.305,0.463-0.305,0.738v13.577
		c0,0.276,0.112,0.543,0.305,0.737c0.079,0.078,0.171,0.145,0.27,0.194l11.521,7.717c0.173,0.115,0.375,0.176,0.577,0.176
		c0.074,0,0.148-0.008,0.223-0.024c0.274-0.059,0.514-0.226,0.663-0.466L37.431,32.019z M43.751,25.001
		c0,10.339-8.412,18.749-18.75,18.749c-10.339,0-18.75-8.41-18.75-18.749c0-10.34,8.412-18.75,18.75-18.75
		C35.339,6.25,43.751,14.661,43.751,25.001 M50,25.001c0-13.808-11.193-25-24.999-25C11.193,0.001,0,11.193,0,25.001
		s11.193,24.998,25.001,24.998C38.807,49.999,50,38.809,50,25.001"/>
</g>
</svg>
