<?xml version="1.0" encoding="utf-8"?>
<!-- Generator: Adobe Illustrator 15.0.0, SVG Export Plug-In . SVG Version: 6.00 Build 0)  -->
<!DOCTYPE svg PUBLIC "-//W3C//DTD SVG 1.1//EN" "http://www.w3.org/Graphics/SVG/1.1/DTD/svg11.dtd">
<svg version="1.1" id="Layer_1" xmlns="http://www.w3.org/2000/svg" xmlns:xlink="http://www.w3.org/1999/xlink" x="0px" y="0px"
	 width="150px" height="27.487px" viewBox="0 0 150 27.487" enable-background="new 0 0 150 27.487" xml:space="preserve">
<g>
	<g>
		<path fill="#231F20" d="M100.428,11.876l-1.912,1.434l-0.172-0.791c-1.201,1.979-3.04,2.165-3.683,2.165
			c-0.312,0-0.63-0.034-0.94-0.103c-0.15-0.034-0.297-0.076-0.438-0.125c-1.051,2.749-1.038,4.16-1.028,4.427l0.02,0.169
			l-0.012,0.088c0,2.761,2.246,5.005,5.008,5.005c2.759,0,5.005-2.244,5.005-5.005v-0.072l0.003-0.073
			c0.087-1.977-0.458-2.68-0.982-3.717C100.839,14.377,100.277,13.267,100.428,11.876 M96.459,1.184c0.029,0,0.062,0.02,0.1,0.061
			c0.716,0.77,3.223,2.255,4.107,6.277c0,0,2.188-1.639,2.783-1.639c0.118,0,0.174,0.062,0.139,0.216
			c-0.462,1.97,0.595,3.538,0.171,6.08c-0.195,1.179,2.053,2.492,1.858,6.961c0,4.61-3.737,8.348-8.347,8.348
			c-4.611,0-8.349-3.737-8.349-8.348c0,0-0.509-4.915,3.796-11.56c0.488-0.722,0.716-1.042,1.36-1.652
			c0.005-0.004,0.008-0.006,0.012-0.006c0.042,0,0.03,0.261,0.021,0.522c-0.005,0.261-0.01,0.521,0.048,0.521
			c0.002,0,0.003-0.001,0.005-0.001c0,0-0.841,4.106,0.278,4.354c0.078,0.017,0.149,0.025,0.219,0.025
			c1.224,0,1.504-2.54,1.562-5.079C96.282,3.724,96.121,1.184,96.459,1.184"/>
		<path fill="#231F20" d="M47.931,13.836c0.364,0.176,0.657,0.409,0.881,0.694c0.223,0.286,0.385,0.61,0.483,0.976
			c0.099,0.364,0.147,0.738,0.147,1.121h-6.035c0.167-0.987,0.51-1.743,1.029-2.269c0.521-0.523,1.242-0.787,2.168-0.787
			C47.126,13.571,47.568,13.659,47.931,13.836 M43.183,10.874c-0.982,0.427-1.82,1.004-2.51,1.73
			c-0.691,0.729-1.222,1.576-1.591,2.542c-0.369,0.967-0.554,1.991-0.554,3.073c0,1.434,0.216,2.691,0.647,3.772
			c0.432,1.08,1.019,1.986,1.762,2.713c0.743,0.729,1.611,1.276,2.604,1.646s2.056,0.554,3.189,0.554c0.551,0,1.13-0.04,1.738-0.117
			c0.608-0.078,1.217-0.218,1.824-0.422c0.609-0.2,1.201-0.482,1.778-0.841c0.577-0.359,1.115-0.823,1.614-1.396l-1.403-1.73
			c-0.198-0.281-0.489-0.422-0.874-0.422c-0.291,0-0.569,0.069-0.834,0.204c-0.266,0.133-0.557,0.285-0.873,0.452
			c-0.317,0.167-0.679,0.316-1.084,0.451c-0.406,0.137-0.889,0.203-1.45,0.203c-1.051,0-1.909-0.304-2.574-0.912
			c-0.665-0.607-1.076-1.587-1.231-2.94h9.325c0.218,0,0.397-0.024,0.538-0.076c0.141-0.052,0.251-0.146,0.336-0.28
			c0.083-0.137,0.14-0.318,0.171-0.548c0.032-0.228,0.047-0.523,0.047-0.889c0-1.164-0.18-2.206-0.539-3.125
			c-0.358-0.921-0.857-1.697-1.497-2.331c-0.64-0.635-1.404-1.117-2.292-1.45c-0.889-0.333-1.869-0.5-2.939-0.5
			C45.275,10.234,44.166,10.448,43.183,10.874 M31.543,26.655v-9.918c0.727-1.352,1.724-2.026,2.993-2.026
			c0.364,0,0.666,0.022,0.905,0.069c0.239,0.048,0.447,0.07,0.624,0.07c0.208,0,0.375-0.045,0.499-0.133s0.208-0.241,0.25-0.46
			l0.624-3.554c-0.448-0.354-1.04-0.532-1.778-0.532c-0.873,0-1.679,0.267-2.417,0.795c-0.739,0.531-1.403,1.254-1.996,2.168
			l-0.265-1.512c-0.042-0.209-0.091-0.384-0.148-0.53c-0.057-0.146-0.14-0.264-0.249-0.352c-0.11-0.088-0.245-0.153-0.405-0.194
			c-0.162-0.041-0.362-0.062-0.601-0.062h-2.869v16.171H31.543z M23.139,4.949c-0.156-0.343-0.369-0.645-0.64-0.905
			c-0.271-0.259-0.585-0.462-0.943-0.607c-0.359-0.146-0.74-0.218-1.146-0.218c-0.396,0-0.765,0.072-1.108,0.218
			c-0.342,0.146-0.646,0.349-0.912,0.607c-0.266,0.261-0.474,0.562-0.624,0.905c-0.15,0.343-0.226,0.712-0.226,1.107
			c0,0.386,0.076,0.746,0.226,1.084c0.15,0.337,0.358,0.634,0.624,0.889c0.265,0.254,0.569,0.458,0.912,0.609
			c0.343,0.15,0.712,0.226,1.108,0.226c0.406,0,0.788-0.075,1.146-0.226c0.358-0.151,0.672-0.355,0.943-0.609
			c0.271-0.254,0.483-0.551,0.64-0.889c0.156-0.338,0.233-0.698,0.233-1.084C23.372,5.661,23.294,5.292,23.139,4.949 M17.977,26.655
			h4.834V10.484h-4.834V26.655z M0.45,3.936v22.72h5.302v-8.843h7.765v-4.069H5.752V7.989h9.325V3.936H0.45z"/>
		<path fill="#231F20" d="M149.254,12.45c-0.603-0.572-1.317-1.021-2.145-1.351c-0.827-0.326-1.76-0.491-2.799-0.491
			c-0.895,0-1.688,0.126-2.387,0.374c-0.695,0.25-1.282,0.586-1.762,1.007c-0.478,0.421-0.841,0.909-1.09,1.465
			c-0.251,0.557-0.376,1.137-0.376,1.739c0,0.677,0.118,1.25,0.351,1.724c0.234,0.472,0.544,0.87,0.93,1.19
			c0.385,0.324,0.823,0.593,1.317,0.804c0.494,0.215,0.997,0.405,1.512,0.571c0.515,0.165,1.019,0.325,1.513,0.474
			c0.494,0.15,0.933,0.329,1.318,0.529c0.384,0.204,0.693,0.45,0.928,0.734c0.233,0.286,0.351,0.647,0.351,1.085
			c0,0.353-0.065,0.687-0.195,0.996c-0.13,0.313-0.33,0.587-0.6,0.827c-0.271,0.241-0.609,0.43-1.015,0.57
			c-0.406,0.141-0.878,0.209-1.418,0.209c-0.636,0-1.161-0.07-1.584-0.217c-0.421-0.145-0.779-0.307-1.075-0.486
			c-0.296-0.175-0.549-0.338-0.755-0.481c-0.209-0.145-0.407-0.219-0.594-0.219c-0.188,0-0.338,0.039-0.453,0.11
			c-0.115,0.072-0.213,0.176-0.295,0.312l-0.656,1.058c0.624,0.562,1.383,1.024,2.277,1.381c0.895,0.358,1.892,0.539,2.993,0.539
			c0.968,0,1.82-0.13,2.558-0.391c0.738-0.259,1.362-0.615,1.871-1.066c0.51-0.453,0.895-0.988,1.154-1.607
			c0.26-0.618,0.391-1.292,0.391-2.02c0-0.633-0.117-1.177-0.352-1.629c-0.233-0.452-0.543-0.834-0.927-1.146
			c-0.386-0.312-0.823-0.572-1.312-0.78c-0.487-0.21-0.989-0.398-1.505-0.568c-0.514-0.171-1.015-0.333-1.505-0.484
			c-0.488-0.152-0.925-0.325-1.309-0.522c-0.386-0.196-0.694-0.432-0.929-0.702c-0.232-0.27-0.351-0.608-0.351-1.013
			c0-0.323,0.07-0.622,0.212-0.896c0.139-0.275,0.342-0.518,0.608-0.726c0.264-0.208,0.583-0.371,0.958-0.492
			c0.375-0.118,0.794-0.179,1.262-0.179c0.542,0,1.009,0.061,1.404,0.179c0.395,0.121,0.735,0.25,1.021,0.391
			s0.527,0.268,0.725,0.382c0.197,0.115,0.375,0.172,0.531,0.172c0.259,0,0.452-0.114,0.576-0.344L149.254,12.45z M123.338,3.685
			v22.97h2.791v-7.547h0.778c0.313,0,0.548,0.031,0.703,0.099c0.157,0.069,0.312,0.213,0.469,0.431l5.191,6.47
			c0.145,0.189,0.3,0.327,0.46,0.415c0.162,0.089,0.356,0.133,0.586,0.133h2.494l-6.174-7.798c-0.136-0.208-0.279-0.393-0.43-0.552
			c-0.15-0.161-0.32-0.305-0.507-0.43c0.176-0.105,0.336-0.225,0.475-0.358c0.143-0.135,0.284-0.292,0.43-0.469l5.816-6.189h-2.526
			c-0.26,0-0.469,0.052-0.624,0.154c-0.154,0.105-0.313,0.239-0.467,0.407l-4.989,5.348c-0.168,0.175-0.318,0.292-0.454,0.351
			c-0.134,0.059-0.306,0.086-0.513,0.086h-0.719V3.685H123.338z M120.188,12.667c-0.653-0.655-1.408-1.161-2.262-1.521
			c-0.852-0.358-1.828-0.538-2.931-0.538c-1.195,0-2.255,0.203-3.182,0.609c-0.925,0.405-1.701,0.97-2.331,1.69
			c-0.628,0.722-1.106,1.585-1.434,2.58c-0.328,0.999-0.491,2.086-0.491,3.26c0,1.289,0.179,2.439,0.538,3.446
			c0.357,1.009,0.85,1.857,1.473,2.551c0.625,0.691,1.36,1.218,2.206,1.583c0.849,0.361,1.765,0.545,2.754,0.545
			c1.145,0,2.229-0.194,3.258-0.585c1.03-0.39,1.888-1.008,2.573-1.848l-0.78-1.014c-0.113-0.176-0.29-0.266-0.529-0.266
			c-0.188,0-0.374,0.081-0.562,0.243c-0.187,0.162-0.426,0.34-0.717,0.537c-0.291,0.196-0.654,0.378-1.091,0.539
			c-0.438,0.161-0.993,0.24-1.669,0.24c-0.706,0-1.344-0.131-1.909-0.397c-0.567-0.265-1.048-0.648-1.443-1.154
			c-0.396-0.503-0.701-1.128-0.922-1.87c-0.216-0.742-0.325-1.593-0.325-2.551c0-0.915,0.102-1.74,0.304-2.479
			c0.202-0.738,0.504-1.366,0.905-1.886c0.399-0.52,0.896-0.918,1.488-1.193c0.593-0.276,1.273-0.413,2.042-0.413
			c0.583,0,1.074,0.065,1.474,0.196c0.4,0.129,0.742,0.271,1.022,0.427c0.279,0.157,0.513,0.3,0.694,0.43
			c0.181,0.129,0.352,0.194,0.506,0.194c0.155,0,0.276-0.032,0.358-0.093c0.084-0.062,0.167-0.15,0.252-0.266L120.188,12.667z"/>
		<path fill="#231F20" d="M86.397,26.522c0.677-0.255,1.251-0.605,1.731-1.053l-0.81-1.325c-0.116-0.176-0.245-0.267-0.391-0.267
			c-0.083,0-0.18,0.041-0.289,0.118c-0.107,0.077-0.242,0.163-0.396,0.257c-0.156,0.096-0.342,0.181-0.555,0.258
			c-0.212,0.079-0.465,0.115-0.758,0.115c-0.509,0-0.924-0.161-1.246-0.481c-0.321-0.323-0.482-0.816-0.482-1.482v-9.481h4.521
			V11.17h-4.521V5.729h-1.404c-0.177,0-0.322,0.049-0.436,0.147c-0.114,0.099-0.183,0.227-0.203,0.382l-0.64,4.881l-2.588,0.328
			v1.106c0,0.207,0.056,0.361,0.171,0.46c0.113,0.099,0.254,0.146,0.421,0.146h1.901v9.67c0,1.309,0.337,2.313,1.007,3.009
			c0.672,0.697,1.629,1.045,2.877,1.045C85.026,26.904,85.722,26.776,86.397,26.522 M75.607,6.367
			c-0.769-0.748-1.668-1.32-2.697-1.715c-1.029-0.394-2.168-0.592-3.416-0.592c-1.112,0-2.097,0.171-2.954,0.515
			c-0.858,0.343-1.579,0.8-2.161,1.372s-1.026,1.227-1.333,1.965c-0.307,0.738-0.459,1.502-0.459,2.292
			c0,0.987,0.153,1.816,0.459,2.487c0.307,0.671,0.71,1.229,1.208,1.677c0.499,0.447,1.068,0.81,1.707,1.092
			c0.639,0.279,1.294,0.527,1.966,0.741c0.67,0.211,1.325,0.419,1.963,0.623c0.64,0.203,1.209,0.448,1.709,0.74
			c0.498,0.292,0.901,0.651,1.208,1.084c0.307,0.433,0.46,0.985,0.46,1.661c0,0.612-0.105,1.169-0.312,1.667
			c-0.209,0.499-0.507,0.929-0.896,1.288c-0.39,0.358-0.865,0.636-1.427,0.835c-0.561,0.198-1.201,0.295-1.918,0.295
			c-0.863,0-1.593-0.116-2.191-0.35c-0.598-0.235-1.107-0.493-1.528-0.773c-0.421-0.279-0.772-0.538-1.052-0.772
			c-0.281-0.233-0.53-0.35-0.749-0.35c-0.146,0-0.279,0.039-0.397,0.116c-0.12,0.077-0.222,0.176-0.304,0.288l-0.875,1.437
			c0.843,0.894,1.858,1.602,3.048,2.127c1.191,0.525,2.509,0.788,3.954,0.788c1.186,0,2.243-0.182,3.173-0.547
			c0.931-0.363,1.715-0.862,2.355-1.495c0.64-0.637,1.125-1.382,1.457-2.238c0.333-0.857,0.5-1.774,0.5-2.752
			c0-0.927-0.154-1.705-0.46-2.341c-0.307-0.633-0.712-1.168-1.217-1.606c-0.504-0.435-1.075-0.797-1.714-1.082
			c-0.639-0.286-1.294-0.544-1.964-0.771c-0.671-0.229-1.325-0.45-1.965-0.663c-0.639-0.213-1.211-0.465-1.715-0.756
			c-0.505-0.291-0.91-0.643-1.216-1.053c-0.308-0.411-0.461-0.928-0.461-1.552c0-0.487,0.089-0.944,0.266-1.364
			c0.177-0.421,0.438-0.788,0.788-1.1c0.348-0.312,0.781-0.559,1.302-0.741c0.519-0.181,1.117-0.273,1.792-0.273
			c0.718,0,1.328,0.089,1.833,0.266c0.504,0.177,0.935,0.371,1.294,0.585c0.358,0.212,0.655,0.407,0.888,0.584
			c0.234,0.177,0.439,0.265,0.617,0.265c0.166,0,0.299-0.039,0.404-0.117c0.104-0.079,0.203-0.195,0.296-0.352L75.607,6.367z"/>
	</g>
</g>
</svg>
