<?xml version="1.0" encoding="utf-8"?>
<!-- Generator: Adobe Illustrator 15.0.0, SVG Export Plug-In . SVG Version: 6.00 Build 0)  -->
<!DOCTYPE svg PUBLIC "-//W3C//DTD SVG 1.1//EN" "http://www.w3.org/Graphics/SVG/1.1/DTD/svg11.dtd">
<svg version="1.1" id="Layer_1" xmlns="http://www.w3.org/2000/svg" xmlns:xlink="http://www.w3.org/1999/xlink" x="0px" y="0px"
	 width="50px" height="50px" viewBox="0 0 50 50" enable-background="new 0 0 50 50" xml:space="preserve">
<path d="M48.8,44.307L34.022,29.529c2.143-3.035,3.405-6.739,3.405-10.738c0-10.305-8.353-18.657-18.656-18.657
	C8.47,0.134,0.114,8.486,0.114,18.791c0,10.303,8.354,18.656,18.658,18.656c4.019,0,7.738-1.275,10.784-3.439l14.769,14.771
	c1.355,1.355,3.47,1.455,4.702,0.227C50.255,47.777,50.154,45.66,48.8,44.307z M6.336,18.791c0-6.858,5.578-12.435,12.436-12.435
	c6.857,0,12.434,5.578,12.434,12.435c0,6.857-5.577,12.434-12.434,12.434C11.913,31.225,6.336,25.648,6.336,18.791z"/>
</svg>
